<svg width="57" height="48" viewBox="0 0 57 48" fill="none" xmlns="http://www.w3.org/2000/svg">
<g clip-path="url(#clip0_169_6134)">
<path d="M48.4099 5.7C43.5099 1.97 36.7899 0 28.9799 0C21.1599 0 14.4399 1.97 9.53994 5.7C3.93994 9.96 0.969941 16.28 0.939941 24C0.969941 31.72 3.93994 38.04 9.52994 42.3C14.4299 46.03 21.1499 48 28.9699 48C36.7899 48 43.5099 46.03 48.4099 42.3C53.9999 38.05 56.9599 31.72 56.9999 24C56.9699 16.28 53.9999 9.96 48.4099 5.7V5.7Z" fill="#00C16B"/>
<path d="M28.9699 44.68C21.8899 44.68 15.8599 42.94 11.5399 39.65C6.80989 36.05 4.28989 30.63 4.25989 23.99C4.28989 17.37 6.80989 11.96 11.5399 8.35C15.8599 5.06 21.8799 3.33 28.9699 3.33C36.0599 3.33 42.0899 5.07 46.3999 8.35C51.1299 11.95 53.6499 17.37 53.6799 24.01C53.6499 30.63 51.1299 36.04 46.3999 39.65C42.0799 42.94 36.0599 44.67 28.9699 44.68Z" stroke="#111927" stroke-miterlimit="10"/>
<path d="M38.5199 15.22C36.7599 14.43 34.8799 13.84 32.9099 13.51C32.8899 13.51 32.8699 13.51 32.8599 13.51C32.8399 13.51 32.8299 13.53 32.8199 13.55C32.5799 13.97 32.3099 14.53 32.1199 14.96C30.0299 14.65 27.9099 14.65 25.8199 14.96C25.6099 14.48 25.3699 14 25.1099 13.55C25.1099 13.53 25.0899 13.52 25.0699 13.51C25.0499 13.51 25.0399 13.5 25.0199 13.51C23.0499 13.84 21.1699 14.43 19.4099 15.22C19.3899 15.22 19.3799 15.24 19.3699 15.25C15.7999 20.5 14.8199 25.63 15.2999 30.69C15.2999 30.7 15.2999 30.71 15.3099 30.73C15.3099 30.74 15.3199 30.75 15.3299 30.76C17.4199 32.28 19.7399 33.44 22.2099 34.18C22.2299 34.18 22.2499 34.18 22.2599 34.18C22.2799 34.18 22.2899 34.16 22.2999 34.15C22.8299 33.44 23.2999 32.69 23.7099 31.9C23.7299 31.85 23.7099 31.8 23.6599 31.78C22.9199 31.5 22.1999 31.16 21.5099 30.77C21.4999 30.77 21.4899 30.75 21.4799 30.74C21.4799 30.73 21.4699 30.71 21.4699 30.7C21.4699 30.69 21.4699 30.67 21.4699 30.66C21.4699 30.65 21.4899 30.64 21.4999 30.63C21.6399 30.52 21.7899 30.41 21.9299 30.3C21.9399 30.29 21.9599 30.28 21.9699 30.28C21.9899 30.28 21.9999 30.28 22.0199 30.28C26.5299 32.31 31.4099 32.31 35.8699 30.28C35.8799 30.28 35.8999 30.28 35.9199 30.28C35.9399 30.28 35.9499 30.28 35.9599 30.3C36.0999 30.41 36.2399 30.52 36.3899 30.63C36.3999 30.63 36.4099 30.65 36.4199 30.66C36.4199 30.67 36.4199 30.69 36.4199 30.7C36.4199 30.71 36.4199 30.73 36.4099 30.74C36.4099 30.75 36.3899 30.76 36.3799 30.77C35.6899 31.17 34.9799 31.5 34.2299 31.78C34.2199 31.78 34.2099 31.79 34.1999 31.8C34.1999 31.8 34.1799 31.82 34.1799 31.83C34.1799 31.84 34.1799 31.85 34.1799 31.87C34.1799 31.88 34.1799 31.89 34.1799 31.91C34.5899 32.7 35.0699 33.45 35.5899 34.16C35.5999 34.17 35.6199 34.19 35.6299 34.19C35.6499 34.19 35.6699 34.19 35.6799 34.19C38.1499 33.45 40.4799 32.29 42.5699 30.77C42.5799 30.77 42.5899 30.75 42.5999 30.74C42.5999 30.73 42.6099 30.72 42.6099 30.7C43.1799 24.85 41.6499 19.77 38.5299 15.26C38.5299 15.25 38.5099 15.23 38.4899 15.23L38.5199 15.22ZM24.3999 27.61C23.0399 27.61 21.9199 26.38 21.9199 24.88C21.9199 23.38 23.0199 22.15 24.3999 22.15C25.7799 22.15 26.8999 23.39 26.8799 24.88C26.8799 26.39 25.7799 27.61 24.3999 27.61ZM33.5599 27.61C32.1999 27.61 31.0799 26.38 31.0799 24.88C31.0799 23.38 32.1799 22.15 33.5599 22.15C34.9399 22.15 36.0599 23.39 36.0399 24.88C36.0399 26.39 34.9499 27.61 33.5599 27.61Z" fill="#111927"/>
</g>
<defs>
<clipPath id="clip0_169_6134">
<rect width="56.06" height="48" fill="white" transform="translate(0.939941)"/>
</clipPath>
</defs>
</svg>
