<svg width="49" height="48" viewBox="0 0 49 48" fill="none" xmlns="http://www.w3.org/2000/svg">
<path d="M24.9399 48C15.2099 48 9.32994 48 5.12994 43.81C0.939941 39.61 0.939941 33.73 0.939941 24C0.939941 14.27 0.939941 8.39 5.12994 4.2C9.32994 0 15.2099 0 24.9399 0C34.6699 0 40.5499 0 44.7499 4.19C48.9399 8.39 48.9399 14.26 48.9399 24C48.9399 33.74 48.9399 39.61 44.7499 43.81C40.5499 48 34.6799 48 24.9399 48V48Z" fill="#00C16B"/>
<path d="M24.94 44.72C15.06 44.72 10.56 44.59 7.44997 41.49C4.34997 38.39 4.21997 33.89 4.21997 24C4.21997 14.11 4.34997 9.62 7.44997 6.51C10.55 3.41 15.05 3.28 24.94 3.28C34.83 3.28 39.32 3.41 42.42 6.51C45.52 9.61 45.65 14.11 45.65 24C45.65 33.89 45.52 38.38 42.42 41.48C39.32 44.58 34.82 44.71 24.93 44.71L24.94 44.72Z" stroke="#111927" stroke-miterlimit="10"/>
<path d="M37.28 16.66C36.37 17.06 35.4 17.33 34.37 17.46C35.43 16.83 36.22 15.83 36.6 14.66C35.61 15.25 34.52 15.67 33.38 15.89C32.62 15.08 31.61 14.54 30.51 14.35C29.41 14.17 28.28 14.35 27.3 14.88C26.32 15.41 25.53 16.24 25.07 17.26C24.61 18.28 24.5 19.42 24.75 20.5C22.74 20.4 20.77 19.88 18.97 18.96C17.17 18.05 15.58 16.77 14.31 15.2C13.88 15.95 13.63 16.82 13.63 17.75C13.63 18.58 13.83 19.4 14.23 20.14C14.62 20.88 15.19 21.5 15.88 21.97C15.08 21.94 14.29 21.73 13.59 21.34V21.41C13.59 22.58 13.99 23.71 14.73 24.62C15.47 25.53 16.5 26.15 17.65 26.38C16.9 26.58 16.12 26.61 15.36 26.47C15.68 27.48 16.31 28.36 17.16 28.99C18.01 29.62 19.03 29.97 20.09 29.99C18.3 31.4 16.08 32.16 13.8 32.16C13.4 32.16 12.99 32.14 12.59 32.09C14.91 33.58 17.6 34.37 20.35 34.37C29.67 34.37 34.76 26.65 34.76 19.96C34.76 19.74 34.76 19.52 34.74 19.31C35.73 18.59 36.59 17.71 37.27 16.69L37.28 16.66Z" fill="#111927"/>
</svg>
